<svg width="95" height="76" viewBox="0 0 95 76" fill="none" xmlns="http://www.w3.org/2000/svg">
<path d="M0.900002 75.6L24.9 20.4L27 33.6C22.6 33.6 18.9 32.1 15.9 29.1C12.9 26.1 11.4 22.4 11.4 18C11.4 13 13.1 8.89999 16.5 5.7C19.9 2.49999 23.8 0.899988 28.2 0.899988C32.6 0.899988 36.2 2.39999 39 5.39998C42 8.19998 43.5 11.9 43.5 16.5C43.5 19.1 43 21.6 42 24C41.2 26.2 39.9 29 38.1 32.4L15.3 75.6H0.900002ZM51.9 75.6L75.9 20.4L78 33.6C73.6 33.6 69.9 32.1 66.9 29.1C63.9 26.1 62.4 22.4 62.4 18C62.4 13 64.1 8.89999 67.5 5.7C70.9 2.49999 74.8 0.899988 79.2 0.899988C83.6 0.899988 87.2 2.39999 90 5.39998C93 8.19998 94.5 11.9 94.5 16.5C94.5 19.1 94 21.6 93 24C92.2 26.2 90.9 29 89.1 32.4L66.3 75.6H51.9Z" fill="#FF2625" fill-opacity="0.08"/>
</svg>
